<svg id="egI6SwzduRy1" xmlns="http://www.w3.org/2000/svg" xmlns:xlink="http://www.w3.org/1999/xlink" viewBox="0 0 122.88 117.42" shape-rendering="geometricPrecision" text-rendering="geometricPrecision"><path d="M66.71,3.55L81.1,37.26l36.58,3.28v-.01c1.55.13,2.91.89,3.85,2.01.970461,1.147045,1.445306,2.632734,1.32,4.13v.01c-.117504,1.354021-.717212,2.620861-1.69,3.57-.12.13-.25.25-.39.36L93.25,74.64l8.19,35.83c.35,1.53.05,3.06-.73,4.29-.797052,1.278163-2.071341,2.185284-3.54,2.52l-.14.03c-.71.14-1.43.15-2.12.02v.01c-.75-.13-1.47-.42-2.11-.84l-.05-.03-31.3-18.71L29.9,116.62c-1.291858.777446-2.840377,1.007728-4.302558.639836s-2.717335-1.30359-3.487442-2.599836c-.38-.64-.62-1.33-.73-2.02-.1-.63-.09-1.27.02-1.89.02-.13.04-.27.08-.4l8.16-35.7C20.4,66.58,10.9,58.55,1.81,50.35l-.08-.08c-1.015002-.975457-1.628519-2.295231-1.72-3.7-.1-1.45.36-2.93,1.4-4.12l.12-.13.08-.08c.994532-1.028618,2.341285-1.643052,3.77-1.72h.06l36.34-3.26L56.22,3.46c.61-1.44,1.76-2.5,3.11-3.05c1.35-.54,2.9-.57,4.34.04.69.29,1.3.71,1.8,1.22.53.53.94,1.15,1.22,1.82l.02.06ZM25.597442,102.907416L61.85,5.51c-.020361-.052203-.050961-.099804-.09-.14-.040196-.039039-.087797-.069639-.14-.09-.111307-.050011,2.161307-1.870011,2.05-1.82-.1.04,32.05,108.09,32,108.21L35.1,58.71c-.37.86,9.7-16.47,8.7-16.38L5.9,45.73c-.08.01-.16.02-.24.02-.06,0-.13.02-.18.05-.03.01-.05.03-.07.05l-.1.12c-.05.08-.07.17-.06.26s-.05-3.76,0-3.69c.06.05,50.91-5.34,50.97-5.28l60.99,8.47c.77.61-81.88,27.54-82.11,28.57v28.607416L41.78,97.76c-.01.06-.01,5.097416,0,5.147416.030594.173982-15.36067,11.807005-15.19,11.852584.12.03,15.09-77.44,15.19-77.5l79.38,4.98c.8-.5-59.24,49.73-58.37,50.25L95.43,112c.08.04.16.09.24.14.05.03.1.05.16.06v.01c.04.01.09.01.14,0l.04-.01c.12-.03.22-.1.28-.2.06-.09-3.01.33-3.04.21L52.058127,92.49C69.808205,63.318152,0.804543,42.978976,1.41,42.54l116.08,3.99c.04-.03.07-.08.1-.13.02-.04.03-.1.04-.17.00999-.117184-.0219-.234114-.09-.33-.078709-.084449-.185216-.137702-.3-.15v-.01c-.01,0-.03,4.52-.03,4.51L79.24,42.32c-1-.01-53.232558,61.557416-53.642558,60.587416Z" fill="#ffcf00"/></svg>
